<svg fill="#FFB800" role="img" viewBox="0 0 24 24" xmlns="http://www.w3.org/2000/svg"><title>Billbee</title><path d="M12 2c-1.1 0-2 .9-2 2v1H8v2h2v1c-2.2.5-4 2.3-4 4.5V14c0 .3 0 .6.1.9C4.8 15.4 4 16.6 4 18c0 2.2 1.8 4 4 4h8c2.2 0 4-1.8 4-4 0-1.4-.8-2.6-1.9-3.2.1-.3.1-.5.1-.8v-1.5c0-2.2-1.8-4-4-4.5V7h2V5h-2V4c0-1.1-.9-2-2-2zm-3 9h6c1.1 0 2 .9 2 2v1.5c0 .3-.2.5-.5.5h-9c-.3 0-.5-.2-.5-.5V13c0-1.1.9-2 2-2zm0 2v.5h2V13H9zm4 0v.5h2V13h-2zm-4.5 4h7c.8 0 1.5.7 1.5 1.5s-.7 1.5-1.5 1.5h-7c-.8 0-1.5-.7-1.5-1.5s.7-1.5 1.5-1.5z"/></svg>